<svg width="15" height="21" fill="none" xmlns="http://www.w3.org/2000/svg"><path d="M7.568 4.602a2.688 2.688 0 00-2.684 2.685A2.688 2.688 0 007.568 9.97a2.688 2.688 0 002.685-2.684 2.688 2.688 0 00-2.685-2.685zm0 4.602a1.92 1.92 0 01-1.917-1.917 1.92 1.92 0 011.917-1.918 1.92 1.92 0 011.918 1.918 1.92 1.92 0 01-1.918 1.917z" fill="#fff"/><path d="M12.701 2.154A7.307 7.307 0 007.501 0a7.306 7.306 0 00-5.2 2.154C-.27 4.724-.59 9.561 1.607 12.491L7.501 21l5.883-8.498c2.207-2.941 1.888-7.778-.683-10.348zm.061 9.9l-5.261 7.598-5.27-7.61C.237 9.384.523 5.016 2.843 2.696A6.544 6.544 0 017.501.767c1.76 0 3.413.685 4.658 1.93 2.32 2.32 2.606 6.687.603 9.357z" fill="#fff"/></svg>